# xmcd CD database file generated by MAGIX-FreeDB-MP3_deluxe_17 v3.0beta1
#
# Track frame offsets:
#	150
#	12388
#	30111
#	43646
#	59683
#	74636
#	86891
#	103029
#	122087
#	136131
#	149681
#	171137
#	186554
#	203980
#	216218
#	230777
#	250036
#	268418
#	282752
#	298169
#
# Disc length: 4316
#
# Revision: 0
# Processed by: cddbd v1.5.2PL0 Copyright (c) Steve Scherf et al.
# Submitted via: MAGIX-FreeDB-MP3_deluxe_17 v3.0beta1
#
DISCID=4810da14
DTITLE=Tanya Tucker - 02 Walking Shoes
DYEAR=1900
DGENRE=Country
TTITLE0=02 Walking Shoes
TTITLE1=03 Some Kind of Trouble
TTITLE2=04 Little Things
TTITLE3=01 Black Water Bayou
TTITLE4=05 Don't go out
TTITLE5=06 Soon
TTITLE6=07 Down to my last Teardrop
TTITLE7=08 Tell me about it
TTITLE8=09 Two Sparrows in a Hurricane
TTITLE9=10 Hangin' in
TTITLE10=11 It won't be me
TTITLE11=12 I'll take today
TTITLE12=13 Oh what it did to me
TTITLE13=14 My Arms stay open all Night
TTITLE14=15 It's a little too late
TTITLE15=16 We don't have to do this
TTITLE16=17 If your Heart ain't busy tonight
TTITLE17=18 Right about now
TTITLE18=19 What do i do with me
TTITLE19=20 Delta Dawn
EXTD=
EXTT0=
EXTT1=
EXTT2=
EXTT3=
EXTT4=
EXTT5=
EXTT6=
EXTT7=
EXTT8=
EXTT9=
EXTT10=
EXTT11=
EXTT12=
EXTT13=
EXTT14=
EXTT15=
EXTT16=
EXTT17=
EXTT18=
EXTT19=
PLAYORDER=
